# xmcd
# Track frame offsets:
# 150
# 16455
# 32225
# 54210
# 73132
# 91227
# 107387
# 123192
# 144637
# 160684
# 182230
# 194967
# 213075
#
# Disc length: 3055 seconds
# Revision: 0
# Processed by: cddbd v1.4PL0 Copyright (c) Steve Scherf et al.
# Submitted via: VisiTrax 2.9.5.180 - For more info visit www.synapsa.com
#
DISCID=b30bed0d
DTITLE=Bente Boe - Memories of you
DYEAR=1900
DGENRE=
TTITLE0=Memories of you
TTITLE1=Love me tender
TTITLE2=Catch you when you fall
TTITLE3=Down that road before
TTITLE4=Kisses in the moonlight
TTITLE5=If my wishes had wings
TTITLE6=Who needs a broken heart
TTITLE7=Cross the river
TTITLE8=Lies and love
TTITLE9=bye, bye baby, goodbye
TTITLE10=T-R-O-U-B-L-E
TTITLE11=Nothing has changed
TTITLE12=If you
EXTD=
EXTT0=
EXTT1=
EXTT2=
EXTT3=
EXTT4=
EXTT5=
EXTT6=
EXTT7=
EXTT8=
EXTT9=
EXTT10=
EXTT11=
EXTT12=
PLAYORDER=
